PathFileType	4	(X/Y/Z)	C:/Users/beibeiliu/ov580/test_trc/User3\sequence.22_training_dense_right.trc
DataRate	CameraRate	NumFrames	NumMarkers	Units	OrigDataRate	OrigDataStartFrame	OrigNumFrames
120	120	18	19	mm	120	66	262
Frame#	Time	ThumbCMC			ThumbMCP			ThumbIP			ThumbTip			IndexMCP			IndexPIP			IndexTip			MiddleMCP			MiddlePIP			MiddleTip			RingMCP			RingPIP			RingTip			PinkyMCP			PinkyPIP			PinkyTip			BackHand1			BackHand2			BackHand3	
		X0	Y0	Z0	X1	Y1	Z1	X2	Y2	Z2	X3	Y3	Z3	X4	Y4	Z4	X5	Y5	Z5	X6	Y6	Z6	X7	Y7	Z7	X8	Y8	Z8	X9	Y9	Z9	X10	Y10	Z10	X11	Y11	Z11	X12	Y12	Z12	X13	Y13	Z13	X14	Y14	Z14	X15	Y15	Z15	X16	Y16	Z16	X17	Y17	Z17	X18	Y18	Z18	
65	0.541667	180.425	20.8338	-10.9549	160.851	18.7735	-39.3254	146.677	20.4839	-64.9473	137.352	6.83784	-84.4148	216.68	4.13539	-75.7044	209.485	0.409029	-109.113	190.748	-0.373692	-127.143	222.48	-25.7353	-82.1165	212.214	-28.3987	-109.413	181.251	-27.4213	-127.486	215.465	-38.3655	-72.7611	206.432	-44.3444	-100.1	179.333	-44.9993	-115.875	203.802	-57.5353	-58.2951	191.223	-65.1671	-81.7823	171.663	-62.1606	-93.9698	218.526	-34.3028	-17.1854	213.646	-30.4298	13.2274	218.949	-1.62797	-10.6044	
66	0.55	172.271	24.9494	-7.3266	153.907	22.1794	-34.4687	140.814	24.0661	-64.5627	136.253	10.4078	-83.7076	212.992	20.3587	-74.9366	208.595	25.147	-103.205	187.053	18.2827	-127.267	223.583	-3.09497	-76.8222	216.566	-6.69971	-109.08	184.811	-15.4473	-129.397	222.824	-21.3002	-74.0951	213.771	-26.5341	-102.698	190.86	-30.1813	-117.356	215.036	-41.7664	-58.8506	209.001	-46.9169	-81.1766	185.279	-52.6672	-99.3685	224.328	-22.0531	-19.8078	216.741	-22.6751	10.9407	212.125	10.9374	-4.84537	
67	0.558333	161.755	26.2181	-1.62502	146.007	22.8634	-31.0706	136.634	22.264	-60.3272	130.29	14.8661	-81.0529	204.272	39.0313	-67.4904	198.208	45.5488	-97.5157	183.347	35.286	-120.986	218.749	22.6123	-76.3128	215.254	18.101	-104.647	190.974	5.46388	-127.693	223.385	-0.281955	-66.5318	219.366	-0.834516	-96.9608	198.316	-11.3433	-117.045	222.328	-24.0176	-58.0527	215.557	-23.4648	-86.1956	199.939	-32.8932	-102.372	222.448	-4.0943	-14.3106	218.911	-12.37	15.7309	203.954	24.8672	-2.00402	
68	0.566667	153.682	21.4909	1.90914	140.533	19.2812	-25.9244	125.25	23.2948	-55.6084	125.208	17.2542	-79.5385	192.636	50.4015	-58.0331	191	59.1703	-87.9083	174.512	53.4708	-112.93	215.01	37.8301	-70.316	210.487	37.6962	-98.4858	190.577	23.369	-125.689	221.909	17.5753	-64.2384	217.124	20.5396	-92.7517	198.919	8.58134	-118.073	223.638	-4.35328	-57.0793	220.597	-3.87544	-79.2378	204.289	-12.2251	-103.943	218.05	9.68888	-10.5211	216.684	-1.67771	14.6123	197.432	27.3203	2.42303	
69	0.575	151.96	16.9799	1.52911	136.329	16.4985	-24.0083	124	21.8112	-55.0844	123.126	16.8866	-75.6632	178.834	62.0426	-53.6066	175.235	70.8888	-80.7626	164.137	64.5685	-106.376	203.037	51.6607	-61.0827	199.366	56.2597	-91.7675	187.825	38.0756	-121.881	214.721	32.1441	-57.3149	211.228	38.1511	-85.8244	201.471	23.0884	-114.123	220.136	12.3833	-54.6905	222.869	9.62518	-77.6225	210.228	2.30958	-99.946	215.898	18.0546	-9.75114	209.625	5.70282	20.4826	184.495	29.6552	10.2684	
70	0.583333	146.951	10.3062	6.03271	132.372	12.0213	-24.1785	117.544	17.1157	-51.7423	120.076	15.9915	-76.2026	169.864	64.9323	-48.7077	161.365	76.4571	-73.5874	149.554	70.2895	-102.798	195.489	58.1744	-54.0791	188.079	68.5173	-82.1108	181.471	54.8007	-114.998	204.507	43.2579	-52.0361	203.672	52.1662	-79.8308	193.501	42.4499	-108.258	216.877	24.0627	-50.6916	217.307	24.842	-77.1269	208.186	20.157	-96.3712	209.58	23.7684	-7.88261	207.717	10.0964	18.2751	180.196	32.0005	12.4814	
71	0.591667	143.167	6.1218	6.97777	125.293	7.05772	-19.5669	118.761	12.8246	-50.3295	117.983	14.1777	-76.4676	157.442	64.4776	-39.9592	151.772	77.4976	-68.3945	139.893	75.3998	-91.9228	181.579	65.772	-49.2378	178.352	75.8002	-75.2242	168.866	65.3864	-112.498	197.118	50.4687	-48.3609	198.508	58.3819	-74.6052	187.002	51.8428	-106.084	213.587	27.8167	-45.375	212.836	35.9094	-68.6444	206.789	29.3909	-91.8952	204.833	27.092	-0.723544	203.428	9.07044	25.1629	172.294	25.9265	17.2894	
72	0.6	141.582	-0.950371	11.3177	124.574	3.85203	-20.4803	116.271	9.64503	-48.3718	117.908	11.4414	-73.033	151.799	60.7417	-33.6967	141.765	78.4718	-62.5616	133.779	75.9133	-89.3176	174.838	66.0542	-43.0087	172.559	78.8366	-71.4481	162.297	72.6123	-103.543	190.278	52.5095	-41.641	186.323	65.5975	-70.3696	183.956	58.425	-100.515	207.712	32.6058	-40.1839	207.497	42.204	-67.9319	204.765	36.2983	-93.9864	199.206	28.5359	1.81234	202.781	12.8502	22.6771	165.656	27.1849	16.7565	
73	0.608333	139.185	-3.01031	8.88918	119.628	-2.79273	-18.0648	114.693	3.98212	-46.6478	114.974	8.61631	-70.0401	143.199	59.5135	-31.1496	130.166	75.6433	-55.2373	124.839	76.5368	-82.0219	166.58	65.7106	-38.5362	163.557	78.8568	-64.0034	155.739	74.7374	-99.6162	183.542	53.1227	-37.9541	184.277	68.5875	-66.8377	178.155	63.1508	-96.2479	205.264	34.8814	-38.7321	207.954	44.7836	-64.5592	201.523	41.7716	-92.0398	191.713	28.7684	1.22756	197.528	10.0859	26.3313	161.916	21.2413	20.3667	
74	0.616667	138.169	-8.71722	8.47401	122.394	-5.02289	-21.0889	113.746	-0.187768	-46.6623	115.493	5.40843	-71.2429	138.653	55.7929	-31.0972	127.067	73.5149	-56.5689	124.744	72.7442	-83.3492	161.719	63.9319	-38.3676	159.966	78.3599	-65.9772	154.859	75.251	-98.275	181.027	52.508	-36.4227	179.423	68.0755	-67.8	175.624	64.7985	-92.5102	202.426	35.7262	-37.3085	203.519	46.7939	-64.6494	196.76	42.2919	-89.3734	191.323	28.8944	1.03676	195.065	8.81153	27.3798	158.959	21.9241	17.9641	
75	0.625	136.127	-10.2689	7.35412	119.963	-9.87112	-19.4817	110.904	-4.44421	-46.7471	110.458	3.33472	-74.3733	136.318	54.5507	-34.0845	125.993	69.3371	-58.1764	118.533	68.5073	-85.5572	158.597	59.5761	-36.7462	154.674	76.7401	-67.275	152.112	71.1593	-103.947	179.712	54.4929	-40.4442	176.28	66.3969	-62.4647	174.112	61.7818	-93.9723	201.531	33.9308	-36.4093	204.803	44.8039	-59.8564	199.633	40.7498	-89.0185	190.057	27.6124	1.32736	193.689	7.95812	26.0723	155.732	20.8819	18.5079	
76	0.633333	136.54	-12.3348	8.06315	119.771	-8.36569	-23.5877	112.226	-5.09848	-49.1775	108.857	-1.32779	-74.2484	139.611	50.6019	-33.6174	123.76	66.3072	-58.4	121.486	65.0278	-91.4417	159.064	59.5523	-39.4428	157.053	74.7511	-68.6049	151.295	68.9838	-101.815	178.02	49.6853	-39.119	177.278	65.1767	-68.0071	174.402	59.5132	-95.4814	199.861	32.8266	-37.7059	203.522	43.6713	-60.733	197.009	40.0001	-89.6716	187.844	22.6777	3.66987	195.717	11.0626	24.6757	158.558	15.9873	20.3484	
77	0.641667	135.622	-12.1613	7.03757	123.971	-12.0147	-21.8548	112.356	-6.85583	-48.7304	110.55	-3.4923	-74.7119	134.533	52.6733	-36.6795	125.895	64.6659	-61.9743	123.475	64.0555	-90.987	161.612	59.1285	-41.4707	155.268	72.9438	-67.7213	155.91	67.9872	-103.68	182.281	52.8463	-43.2042	176.057	62.875	-65.9216	173.392	59.4263	-94.725	205.135	31.8129	-39.479	206.356	41.4563	-64.753	201.032	35.3377	-92.2797	188.582	24.0871	0.128245	196.331	9.10847	22.5625	161.12	16.7764	16.3987	
78	0.65	136.148	-12.4961	8.07347	122.26	-13.2753	-20.6569	110.793	-5.01716	-53.2292	115.808	-1.40501	-76.3737	140.199	49.2184	-36.6631	126.073	65.0281	-61.7106	124.353	64.7721	-91.1517	163.765	56.5902	-39.5767	162.655	73.1016	-68.8246	157.471	68.3275	-103.419	184.098	50.4202	-43.1166	182.725	63.2197	-69.5872	177.499	57.2409	-97.7841	205.724	33.7038	-42.0512	209.428	40.5408	-63.1757	202.76	38.2646	-89.3712	189.524	25.3969	2.30313	193.271	9.28815	27.287	160.792	18.0437	15.5875	
79	0.658333	136.659	-10.1188	5.81958	121.622	-9.78426	-22.1236	115.388	-7.15551	-47.9641	117.392	-0.914526	-74.1368	137.709	53.4915	-39.2475	131.343	67.5437	-65.341	122.116	65.372	-91.1608	163.596	58.3656	-40.7691	162.133	73.5481	-68.7759	157.386	67.7431	-108.259	183.035	48.3945	-40.74	181.544	63.9692	-69.3102	178.853	56.9711	-100.061	207.986	34.0073	-41.2676	205.384	41.826	-63.1619	206.19	37.7754	-92.2207	190.439	25.4429	3.22992	193.062	11.7171	25.2444	159.867	17.3597	16.658	
80	0.666667	137.249	-8.79519	7.0356	121.972	-7.34871	-24.5456	113.962	-4.46348	-50.8241	112.946	-1.85516	-76.2716	142.666	55.648	-39.6586	130.617	68.3225	-64.5949	124.922	67.0828	-92.4277	166.773	60.2236	-43.353	165.469	74.7805	-71.1771	157.843	69.6926	-105.841	185.109	50.3124	-40.766	182.796	63.7597	-67.2619	179.537	59.3794	-98.6736	205.497	34.3182	-40.3349	209.423	42.0714	-66.4412	206.161	35.9007	-93.7256	189.807	26.5786	2.72203	194.773	11.2164	24.5721	160.461	18.4008	16.1699	
81	0.675	137.679	-8.01548	5.49766	123.653	-8.0474	-24.0002	113.274	-4.15102	-50.8651	118.586	-0.390302	-74.5481	139.974	55.8254	-39.2668	130.677	68.6697	-65.1203	124.594	67.3736	-94.5216	169.321	63.5995	-44.9262	165.876	74.9409	-74.9222	158.34	69.2137	-107.382	187.172	53.1904	-42.4757	182.785	66.1931	-69.8039	184.39	59.6934	-100.088	207.486	35.8849	-41.7245	211.875	42.7453	-65.931	208.055	39.2222	-91.3101	191.857	25.4501	3.10576	199.148	11.3847	25.7116	164.952	20.6739	15.0835	
82	0.683333	135.586	-6.7388	4.42663	124.317	-6.60016	-24.4817	116.676	-1.37457	-52.7244	118.188	0.96853	-76.7205	144.785	57.0436	-41.7101	134.298	69.3816	-64.6003	130.047	67.3929	-91.2827	168.542	61.5302	-43.5391	163.131	75.452	-69.2794	160.957	68.5707	-109.927	187.077	53.9517	-43.5823	183.987	65.3723	-71.0603	184.176	60.087	-97.4145	207.801	34.0707	-38.9879	213.2	42.9515	-65.1301	208.821	39.7558	-89.3316	194.045	29.3201	-0.974747	196.957	14.7012	23.8916	163.29	22.4173	12.6741	
